<svg xmlns="http://www.w3.org/2000/svg" viewBox="0 0 200 40" fill="none">
  <defs>
    <linearGradient id="rz-gold" x1="0" y1="0" x2="1" y2="1">
      <stop offset="0%" stop-color="#F5C04A"/>
      <stop offset="100%" stop-color="#E07B39"/>
    </linearGradient>
    <linearGradient id="rz-accent" x1="0" y1="0" x2="1" y2="1">
      <stop offset="0%" stop-color="#E07B39"/>
      <stop offset="100%" stop-color="#C850C0"/>
    </linearGradient>
  </defs>
  <!-- Play icon stylized as R -->
  <g transform="translate(4,4)">
    <rect x="0" y="0" width="32" height="32" rx="8" fill="url(#rz-gold)" opacity="0.15"/>
    <path d="M8 8 L8 24 L14 24 L14 18 L18 18 L22 24 L29 24 L23.5 16.5 C25.5 15.5 26.5 13.5 26.5 11 C26.5 8.5 24.5 8 21 8 L8 8 Z M14 13 L20 13 C21.5 13 22 13.5 22 14.5 C22 15.5 21.5 16 20 16 L14 16 L14 13 Z" fill="url(#rz-gold)"/>
  </g>
  <!-- Wordmark -->
  <text x="46" y="27" font-family="'Space Grotesk', 'Inter', sans-serif" font-weight="700" font-size="22" fill="#F5EFE7">Reelzak</text>
</svg>
